<mxfile host="App.diagrams.net" modified="2021-02-03T16:33:22.176Z" agent="5.0 (X11)" etag="qaTbt1uCz_Ejsq8TY8vP" version="14.2.9" type="github" pages="2">
  <diagram name="User Menu" id="12e1b939-464a-85fe-373e-61e167be1490">
    <mxGraphModel dx="3341.5" dy="912" grid="1" gridSize="10" guides="1" tooltips="1" connect="1" arrows="1" fold="1" page="1" pageScale="1.5" pageWidth="1169" pageHeight="826" background="#ffffff" math="0" shadow="0">
      <root>
        <mxCell id="0" />
        <mxCell id="1" parent="0" />
        <mxCell id="uwUYPq7kWILbWqD_-sVC-1" value="Меню аккаунтов&lt;br&gt;(Описание текстом)" style="whiteSpace=wrap;html=1;aspect=fixed;" vertex="1" parent="1">
          <mxGeometry x="-920" y="310" width="180" height="180" as="geometry" />
        </mxCell>
        <mxCell id="uwUYPq7kWILbWqD_-sVC-27" style="edgeStyle=orthogonalEdgeStyle;rounded=0;orthogonalLoop=1;jettySize=auto;html=1;exitX=0.5;exitY=1;exitDx=0;exitDy=0;entryX=0.5;entryY=0;entryDx=0;entryDy=0;" edge="1" parent="1" source="uwUYPq7kWILbWqD_-sVC-2" target="uwUYPq7kWILbWqD_-sVC-6">
          <mxGeometry relative="1" as="geometry" />
        </mxCell>
        <mxCell id="uwUYPq7kWILbWqD_-sVC-2" value="Accounts" style="rounded=0;whiteSpace=wrap;html=1;" vertex="1" parent="1">
          <mxGeometry x="-920" y="450" width="90" height="50" as="geometry" />
        </mxCell>
        <mxCell id="uwUYPq7kWILbWqD_-sVC-28" style="edgeStyle=orthogonalEdgeStyle;rounded=0;orthogonalLoop=1;jettySize=auto;html=1;exitX=0.5;exitY=1;exitDx=0;exitDy=0;entryX=0.5;entryY=0;entryDx=0;entryDy=0;" edge="1" parent="1" source="uwUYPq7kWILbWqD_-sVC-3" target="uwUYPq7kWILbWqD_-sVC-22">
          <mxGeometry relative="1" as="geometry" />
        </mxCell>
        <mxCell id="uwUYPq7kWILbWqD_-sVC-3" value="Help" style="rounded=0;whiteSpace=wrap;html=1;" vertex="1" parent="1">
          <mxGeometry x="-830" y="450" width="90" height="50" as="geometry" />
        </mxCell>
        <mxCell id="uwUYPq7kWILbWqD_-sVC-6" value="Список аккаунтов" style="whiteSpace=wrap;html=1;aspect=fixed;" vertex="1" parent="1">
          <mxGeometry x="-1140" y="670" width="210" height="210" as="geometry" />
        </mxCell>
        <mxCell id="uwUYPq7kWILbWqD_-sVC-9" value="ac1" style="rounded=0;whiteSpace=wrap;html=1;" vertex="1" parent="1">
          <mxGeometry x="-1140" y="790" width="60" height="30" as="geometry" />
        </mxCell>
        <mxCell id="uwUYPq7kWILbWqD_-sVC-11" value="ac4" style="rounded=0;whiteSpace=wrap;html=1;" vertex="1" parent="1">
          <mxGeometry x="-1140" y="820" width="60" height="30" as="geometry" />
        </mxCell>
        <mxCell id="uwUYPq7kWILbWqD_-sVC-12" value="ac2" style="rounded=0;whiteSpace=wrap;html=1;" vertex="1" parent="1">
          <mxGeometry x="-1065" y="790" width="60" height="30" as="geometry" />
        </mxCell>
        <mxCell id="uwUYPq7kWILbWqD_-sVC-13" value="ac3" style="rounded=0;whiteSpace=wrap;html=1;" vertex="1" parent="1">
          <mxGeometry x="-990" y="790" width="60" height="30" as="geometry" />
        </mxCell>
        <mxCell id="uwUYPq7kWILbWqD_-sVC-17" value="ac5" style="rounded=0;whiteSpace=wrap;html=1;" vertex="1" parent="1">
          <mxGeometry x="-1065" y="820" width="60" height="30" as="geometry" />
        </mxCell>
        <mxCell id="uwUYPq7kWILbWqD_-sVC-40" style="edgeStyle=orthogonalEdgeStyle;rounded=0;orthogonalLoop=1;jettySize=auto;html=1;entryX=0.5;entryY=0;entryDx=0;entryDy=0;" edge="1" parent="1" source="uwUYPq7kWILbWqD_-sVC-19" target="uwUYPq7kWILbWqD_-sVC-33">
          <mxGeometry relative="1" as="geometry" />
        </mxCell>
        <mxCell id="uwUYPq7kWILbWqD_-sVC-19" value="ac6" style="rounded=0;whiteSpace=wrap;html=1;" vertex="1" parent="1">
          <mxGeometry x="-990" y="820" width="60" height="30" as="geometry" />
        </mxCell>
        <mxCell id="uwUYPq7kWILbWqD_-sVC-26" style="edgeStyle=orthogonalEdgeStyle;rounded=0;orthogonalLoop=1;jettySize=auto;html=1;exitX=0.5;exitY=1;exitDx=0;exitDy=0;entryX=0.5;entryY=0;entryDx=0;entryDy=0;" edge="1" parent="1" source="uwUYPq7kWILbWqD_-sVC-20" target="uwUYPq7kWILbWqD_-sVC-25">
          <mxGeometry relative="1" as="geometry" />
        </mxCell>
        <mxCell id="uwUYPq7kWILbWqD_-sVC-20" value="add" style="rounded=0;whiteSpace=wrap;html=1;" vertex="1" parent="1">
          <mxGeometry x="-1100" y="850" width="60" height="30" as="geometry" />
        </mxCell>
        <mxCell id="uwUYPq7kWILbWqD_-sVC-22" value="контакты админа" style="rounded=0;whiteSpace=wrap;html=1;" vertex="1" parent="1">
          <mxGeometry x="-740" y="590" width="180" height="80" as="geometry" />
        </mxCell>
        <mxCell id="uwUYPq7kWILbWqD_-sVC-29" style="edgeStyle=orthogonalEdgeStyle;rounded=0;orthogonalLoop=1;jettySize=auto;html=1;exitX=1;exitY=0.25;exitDx=0;exitDy=0;entryX=1;entryY=0.5;entryDx=0;entryDy=0;" edge="1" parent="1" source="uwUYPq7kWILbWqD_-sVC-24" target="uwUYPq7kWILbWqD_-sVC-1">
          <mxGeometry relative="1" as="geometry">
            <Array as="points">
              <mxPoint x="-470" y="648" />
              <mxPoint x="-470" y="400" />
            </Array>
          </mxGeometry>
        </mxCell>
        <mxCell id="uwUYPq7kWILbWqD_-sVC-24" value="back" style="rounded=0;whiteSpace=wrap;html=1;" vertex="1" parent="1">
          <mxGeometry x="-680" y="640" width="60" height="30" as="geometry" />
        </mxCell>
        <mxCell id="uwUYPq7kWILbWqD_-sVC-31" style="edgeStyle=orthogonalEdgeStyle;rounded=0;orthogonalLoop=1;jettySize=auto;html=1;exitX=0.5;exitY=1;exitDx=0;exitDy=0;" edge="1" parent="1" source="uwUYPq7kWILbWqD_-sVC-25" target="uwUYPq7kWILbWqD_-sVC-30">
          <mxGeometry relative="1" as="geometry" />
        </mxCell>
        <mxCell id="uwUYPq7kWILbWqD_-sVC-25" value="Введите имя" style="whiteSpace=wrap;html=1;aspect=fixed;" vertex="1" parent="1">
          <mxGeometry x="-1220" y="930" width="80" height="80" as="geometry" />
        </mxCell>
        <mxCell id="uwUYPq7kWILbWqD_-sVC-30" value="Введите пароль" style="rounded=0;whiteSpace=wrap;html=1;" vertex="1" parent="1">
          <mxGeometry x="-1220" y="1060" width="80" height="60" as="geometry" />
        </mxCell>
        <mxCell id="uwUYPq7kWILbWqD_-sVC-33" value="меню аккаунта" style="rounded=0;whiteSpace=wrap;html=1;" vertex="1" parent="1">
          <mxGeometry x="-850" y="930" width="320" height="130" as="geometry" />
        </mxCell>
        <mxCell id="uwUYPq7kWILbWqD_-sVC-61" style="edgeStyle=orthogonalEdgeStyle;rounded=0;orthogonalLoop=1;jettySize=auto;html=1;entryX=0.5;entryY=0;entryDx=0;entryDy=0;" edge="1" parent="1" source="uwUYPq7kWILbWqD_-sVC-34" target="uwUYPq7kWILbWqD_-sVC-45">
          <mxGeometry relative="1" as="geometry" />
        </mxCell>
        <mxCell id="uwUYPq7kWILbWqD_-sVC-34" value="start или stop" style="rounded=0;whiteSpace=wrap;html=1;" vertex="1" parent="1">
          <mxGeometry x="-850" y="1000" width="90" height="30" as="geometry" />
        </mxCell>
        <mxCell id="uwUYPq7kWILbWqD_-sVC-62" value="" style="edgeStyle=orthogonalEdgeStyle;rounded=0;orthogonalLoop=1;jettySize=auto;html=1;" edge="1" parent="1" source="uwUYPq7kWILbWqD_-sVC-36" target="uwUYPq7kWILbWqD_-sVC-49">
          <mxGeometry relative="1" as="geometry" />
        </mxCell>
        <mxCell id="uwUYPq7kWILbWqD_-sVC-36" value="subscription" style="rounded=0;whiteSpace=wrap;html=1;" vertex="1" parent="1">
          <mxGeometry x="-760" y="1000" width="90" height="30" as="geometry" />
        </mxCell>
        <mxCell id="uwUYPq7kWILbWqD_-sVC-58" style="edgeStyle=orthogonalEdgeStyle;rounded=0;orthogonalLoop=1;jettySize=auto;html=1;exitX=0.75;exitY=1;exitDx=0;exitDy=0;" edge="1" parent="1" source="uwUYPq7kWILbWqD_-sVC-38" target="uwUYPq7kWILbWqD_-sVC-51">
          <mxGeometry relative="1" as="geometry" />
        </mxCell>
        <mxCell id="uwUYPq7kWILbWqD_-sVC-38" value="statistics" style="rounded=0;whiteSpace=wrap;html=1;" vertex="1" parent="1">
          <mxGeometry x="-670" y="1000" width="70" height="30" as="geometry" />
        </mxCell>
        <mxCell id="uwUYPq7kWILbWqD_-sVC-59" style="edgeStyle=orthogonalEdgeStyle;rounded=0;orthogonalLoop=1;jettySize=auto;html=1;entryX=0.5;entryY=0;entryDx=0;entryDy=0;" edge="1" parent="1" source="uwUYPq7kWILbWqD_-sVC-39" target="uwUYPq7kWILbWqD_-sVC-52">
          <mxGeometry relative="1" as="geometry" />
        </mxCell>
        <mxCell id="uwUYPq7kWILbWqD_-sVC-39" value="logout" style="rounded=0;whiteSpace=wrap;html=1;" vertex="1" parent="1">
          <mxGeometry x="-600" y="1000" width="70" height="30" as="geometry" />
        </mxCell>
        <mxCell id="uwUYPq7kWILbWqD_-sVC-45" value="Информация о запуске" style="rounded=0;whiteSpace=wrap;html=1;" vertex="1" parent="1">
          <mxGeometry x="-980" y="1100" width="120" height="60" as="geometry" />
        </mxCell>
        <mxCell id="uwUYPq7kWILbWqD_-sVC-48" style="edgeStyle=orthogonalEdgeStyle;rounded=0;orthogonalLoop=1;jettySize=auto;html=1;exitX=0.5;exitY=1;exitDx=0;exitDy=0;" edge="1" parent="1">
          <mxGeometry relative="1" as="geometry">
            <mxPoint x="-1070" y="1230" as="sourcePoint" />
            <mxPoint x="-1070" y="1230" as="targetPoint" />
          </mxGeometry>
        </mxCell>
        <mxCell id="uwUYPq7kWILbWqD_-sVC-49" value="информация о подписке" style="rounded=0;whiteSpace=wrap;html=1;" vertex="1" parent="1">
          <mxGeometry x="-810" y="1100" width="120" height="60" as="geometry" />
        </mxCell>
        <mxCell id="uwUYPq7kWILbWqD_-sVC-51" value="стастика" style="rounded=0;whiteSpace=wrap;html=1;" vertex="1" parent="1">
          <mxGeometry x="-670" y="1100" width="120" height="60" as="geometry" />
        </mxCell>
        <mxCell id="uwUYPq7kWILbWqD_-sVC-52" value="Подтвержение выхода" style="rounded=0;whiteSpace=wrap;html=1;" vertex="1" parent="1">
          <mxGeometry x="-500" y="1100" width="120" height="60" as="geometry" />
        </mxCell>
        <mxCell id="uwUYPq7kWILbWqD_-sVC-55" value="back" style="rounded=0;whiteSpace=wrap;html=1;" vertex="1" parent="1">
          <mxGeometry x="-710" y="1030" width="70" height="30" as="geometry" />
        </mxCell>
        <mxCell id="74ponUoxTx3hJsBkF39E-1" value="back" style="rounded=0;whiteSpace=wrap;html=1;" vertex="1" parent="1">
          <mxGeometry x="-1030" y="850" width="60" height="30" as="geometry" />
        </mxCell>
      </root>
    </mxGraphModel>
  </diagram>
  <diagram id="ubsubVizLqLe6YiJeiRf" name="Admin Menu">
    <mxGraphModel dx="1588" dy="912" grid="1" gridSize="10" guides="1" tooltips="1" connect="1" arrows="1" fold="1" page="1" pageScale="1" pageWidth="827" pageHeight="1169" math="0" shadow="0">
      <root>
        <mxCell id="DP-pKqFVD4c4-4FDA0m8-0" />
        <mxCell id="DP-pKqFVD4c4-4FDA0m8-1" parent="DP-pKqFVD4c4-4FDA0m8-0" />
        <mxCell id="CHd5chjD3snFbWw0zEop-1" value="&lt;div&gt;сообщение от бота о подвтерждение доступа&lt;br&gt;для пользователя: &lt;br&gt;tg_username &lt;br&gt;inst_username&lt;br&gt;&lt;/div&gt;" style="rounded=0;whiteSpace=wrap;html=1;" vertex="1" parent="DP-pKqFVD4c4-4FDA0m8-1">
          <mxGeometry x="254" y="90" width="320" height="120" as="geometry" />
        </mxCell>
        <mxCell id="CHd5chjD3snFbWw0zEop-6" value="принять" style="rounded=0;whiteSpace=wrap;html=1;" vertex="1" parent="DP-pKqFVD4c4-4FDA0m8-1">
          <mxGeometry x="254" y="180" width="110" height="30" as="geometry" />
        </mxCell>
        <mxCell id="CHd5chjD3snFbWw0zEop-7" value="отменить" style="rounded=0;whiteSpace=wrap;html=1;" vertex="1" parent="DP-pKqFVD4c4-4FDA0m8-1">
          <mxGeometry x="365" y="180" width="110" height="30" as="geometry" />
        </mxCell>
        <mxCell id="CHd5chjD3snFbWw0zEop-14" style="edgeStyle=orthogonalEdgeStyle;rounded=0;orthogonalLoop=1;jettySize=auto;html=1;entryX=0.5;entryY=0;entryDx=0;entryDy=0;" edge="1" parent="DP-pKqFVD4c4-4FDA0m8-1" source="CHd5chjD3snFbWw0zEop-12" target="CHd5chjD3snFbWw0zEop-13">
          <mxGeometry relative="1" as="geometry" />
        </mxCell>
        <mxCell id="CHd5chjD3snFbWw0zEop-12" value="Введите tg_username пользователя" style="rounded=0;whiteSpace=wrap;html=1;" vertex="1" parent="DP-pKqFVD4c4-4FDA0m8-1">
          <mxGeometry x="260" y="280" width="320" height="80" as="geometry" />
        </mxCell>
        <mxCell id="CHd5chjD3snFbWw0zEop-13" value="информация об instagram аккаунтах" style="rounded=0;whiteSpace=wrap;html=1;" vertex="1" parent="DP-pKqFVD4c4-4FDA0m8-1">
          <mxGeometry x="260" y="410" width="320" height="60" as="geometry" />
        </mxCell>
        <mxCell id="CHd5chjD3snFbWw0zEop-15" value="список аккаунтов" style="rounded=0;whiteSpace=wrap;html=1;" vertex="1" parent="DP-pKqFVD4c4-4FDA0m8-1">
          <mxGeometry x="260" y="450" width="160" height="20" as="geometry" />
        </mxCell>
        <mxCell id="CHd5chjD3snFbWw0zEop-19" style="edgeStyle=orthogonalEdgeStyle;rounded=0;orthogonalLoop=1;jettySize=auto;html=1;entryX=1;entryY=0.5;entryDx=0;entryDy=0;" edge="1" parent="DP-pKqFVD4c4-4FDA0m8-1" source="CHd5chjD3snFbWw0zEop-16" target="CHd5chjD3snFbWw0zEop-12">
          <mxGeometry relative="1" as="geometry">
            <Array as="points">
              <mxPoint x="600" y="460" />
              <mxPoint x="600" y="320" />
            </Array>
          </mxGeometry>
        </mxCell>
        <mxCell id="CHd5chjD3snFbWw0zEop-16" value="назад" style="rounded=0;whiteSpace=wrap;html=1;" vertex="1" parent="DP-pKqFVD4c4-4FDA0m8-1">
          <mxGeometry x="420" y="450" width="160" height="20" as="geometry" />
        </mxCell>
        <mxCell id="CHd5chjD3snFbWw0zEop-18" value="заблокировать" style="rounded=0;whiteSpace=wrap;html=1;" vertex="1" parent="DP-pKqFVD4c4-4FDA0m8-1">
          <mxGeometry x="470" y="180" width="105" height="30" as="geometry" />
        </mxCell>
        <mxCell id="ekoVhTGDEjZxvzVt_VXv-1" value="Список аккаунтов" style="rounded=0;whiteSpace=wrap;html=1;" vertex="1" parent="DP-pKqFVD4c4-4FDA0m8-1">
          <mxGeometry x="277.5" y="520" width="280" height="230" as="geometry" />
        </mxCell>
        <mxCell id="ekoVhTGDEjZxvzVt_VXv-2" value="ac1" style="rounded=0;whiteSpace=wrap;html=1;" vertex="1" parent="DP-pKqFVD4c4-4FDA0m8-1">
          <mxGeometry x="280" y="640" width="70" height="30" as="geometry" />
        </mxCell>
        <mxCell id="ekoVhTGDEjZxvzVt_VXv-3" value="ac2" style="rounded=0;whiteSpace=wrap;html=1;" vertex="1" parent="DP-pKqFVD4c4-4FDA0m8-1">
          <mxGeometry x="379" y="640" width="70" height="30" as="geometry" />
        </mxCell>
        <mxCell id="ekoVhTGDEjZxvzVt_VXv-4" value="ac3" style="rounded=0;whiteSpace=wrap;html=1;" vertex="1" parent="DP-pKqFVD4c4-4FDA0m8-1">
          <mxGeometry x="487.5" y="640" width="70" height="30" as="geometry" />
        </mxCell>
        <mxCell id="ekoVhTGDEjZxvzVt_VXv-5" value="ac4" style="rounded=0;whiteSpace=wrap;html=1;" vertex="1" parent="DP-pKqFVD4c4-4FDA0m8-1">
          <mxGeometry x="280" y="680" width="70" height="30" as="geometry" />
        </mxCell>
        <mxCell id="ekoVhTGDEjZxvzVt_VXv-6" value="ac5" style="rounded=0;whiteSpace=wrap;html=1;" vertex="1" parent="DP-pKqFVD4c4-4FDA0m8-1">
          <mxGeometry x="379" y="680" width="70" height="30" as="geometry" />
        </mxCell>
        <mxCell id="myBEM1bQf8gtxwCNAFHM-9" value="" style="edgeStyle=orthogonalEdgeStyle;rounded=0;orthogonalLoop=1;jettySize=auto;html=1;" edge="1" parent="DP-pKqFVD4c4-4FDA0m8-1" source="ekoVhTGDEjZxvzVt_VXv-7" target="myBEM1bQf8gtxwCNAFHM-1">
          <mxGeometry relative="1" as="geometry" />
        </mxCell>
        <mxCell id="ekoVhTGDEjZxvzVt_VXv-7" value="ac6" style="rounded=0;whiteSpace=wrap;html=1;" vertex="1" parent="DP-pKqFVD4c4-4FDA0m8-1">
          <mxGeometry x="487.5" y="680" width="70" height="30" as="geometry" />
        </mxCell>
        <mxCell id="myBEM1bQf8gtxwCNAFHM-7" style="edgeStyle=orthogonalEdgeStyle;rounded=0;orthogonalLoop=1;jettySize=auto;html=1;entryX=-0.012;entryY=0.588;entryDx=0;entryDy=0;entryPerimeter=0;" edge="1" parent="DP-pKqFVD4c4-4FDA0m8-1" source="ekoVhTGDEjZxvzVt_VXv-10" target="CHd5chjD3snFbWw0zEop-12">
          <mxGeometry relative="1" as="geometry">
            <Array as="points">
              <mxPoint x="90" y="740" />
              <mxPoint x="90" y="327" />
            </Array>
          </mxGeometry>
        </mxCell>
        <mxCell id="ekoVhTGDEjZxvzVt_VXv-10" value="back" style="rounded=0;whiteSpace=wrap;html=1;" vertex="1" parent="DP-pKqFVD4c4-4FDA0m8-1">
          <mxGeometry x="358" y="730" width="120" height="20" as="geometry" />
        </mxCell>
        <mxCell id="myBEM1bQf8gtxwCNAFHM-1" value="информация об аккаунте" style="rounded=0;whiteSpace=wrap;html=1;" vertex="1" parent="DP-pKqFVD4c4-4FDA0m8-1">
          <mxGeometry x="280" y="810" width="280" height="130" as="geometry" />
        </mxCell>
        <mxCell id="myBEM1bQf8gtxwCNAFHM-2" value="активировать" style="rounded=0;whiteSpace=wrap;html=1;" vertex="1" parent="DP-pKqFVD4c4-4FDA0m8-1">
          <mxGeometry x="280" y="880" width="80" height="30" as="geometry" />
        </mxCell>
        <mxCell id="myBEM1bQf8gtxwCNAFHM-3" value="удалить" style="rounded=0;whiteSpace=wrap;html=1;" vertex="1" parent="DP-pKqFVD4c4-4FDA0m8-1">
          <mxGeometry x="370" y="880" width="100" height="30" as="geometry" />
        </mxCell>
        <mxCell id="myBEM1bQf8gtxwCNAFHM-4" value="отменить " style="rounded=0;whiteSpace=wrap;html=1;" vertex="1" parent="DP-pKqFVD4c4-4FDA0m8-1">
          <mxGeometry x="478" y="880" width="82" height="30" as="geometry" />
        </mxCell>
        <mxCell id="myBEM1bQf8gtxwCNAFHM-10" style="edgeStyle=orthogonalEdgeStyle;rounded=0;orthogonalLoop=1;jettySize=auto;html=1;" edge="1" parent="DP-pKqFVD4c4-4FDA0m8-1" source="myBEM1bQf8gtxwCNAFHM-6" target="ekoVhTGDEjZxvzVt_VXv-1">
          <mxGeometry relative="1" as="geometry">
            <Array as="points">
              <mxPoint x="740" y="925" />
              <mxPoint x="740" y="635" />
            </Array>
          </mxGeometry>
        </mxCell>
        <mxCell id="myBEM1bQf8gtxwCNAFHM-6" value="back" style="rounded=0;whiteSpace=wrap;html=1;" vertex="1" parent="DP-pKqFVD4c4-4FDA0m8-1">
          <mxGeometry x="383" y="910" width="70" height="30" as="geometry" />
        </mxCell>
      </root>
    </mxGraphModel>
  </diagram>
</mxfile>
